<?xml version="1.0" standalone="no"?>
<!DOCTYPE svg PUBLIC "-//W3C//DTD SVG 20010904//EN"
 "http://www.w3.org/TR/2001/REC-SVG-20010904/DTD/svg10.dtd">
<svg version="1.0" xmlns="http://www.w3.org/2000/svg"
 width="300.000000pt" height="233.000000pt" viewBox="0 0 300.000000 233.000000"
 preserveAspectRatio="xMidYMid meet">
<metadata>
Created by potrace 1.10, written by Peter Selinger 2001-2011
</metadata>
<g transform="translate(0.000000,233.000000) scale(0.100000,-0.100000)"
fill="#000000" stroke="none">
<path d="M1594 1756 c-63 -28 -103 -108 -84 -173 27 -97 124 -141 216 -97 78
37 103 149 50 219 -46 60 -116 79 -182 51z m111 -20 c45 -19 75 -69 75 -124 0
-34 -6 -49 -34 -80 -32 -34 -38 -37 -91 -37 -53 0 -59 3 -91 37 -29 32 -34 45
-34 87 0 56 25 95 74 117 40 17 59 17 101 0z"/>
<path d="M1582 1702 c-16 -15 -33 -38 -37 -51 -18 -57 26 -130 87 -145 55 -13
123 34 134 91 19 104 -107 177 -184 105z m119 -2 c22 -12 49 -61 49 -89 0 -12
-13 -35 -28 -52 -22 -25 -36 -31 -67 -31 -31 0 -45 6 -67 31 -15 17 -28 40
-28 52 0 27 26 76 47 88 23 13 69 14 94 1z"/>
<path d="M1632 1670 c-19 -30 -14 -50 14 -60 14 -6 22 -14 19 -20 -4 -7 -13
-7 -26 0 -23 13 -26 -4 -5 -26 20 -20 31 -18 46 11 11 20 11 27 0 40 -7 8 -19
15 -26 15 -8 0 -14 5 -14 11 0 7 10 9 25 5 28 -7 31 0 11 27 -17 22 -28 22
-44 -3z"/>
<path d="M1393 1740 c-80 -16 -156 -66 -201 -133 -31 -45 -64 -132 -54 -141
12 -13 21 -5 27 27 12 55 42 102 93 148 58 53 127 79 205 79 55 0 74 11 41 24
-20 8 -57 6 -111 -4z"/>
<path d="M1374 1672 c-75 -26 -120 -66 -158 -139 -20 -39 -20 -43 -2 -43 8 0
16 10 20 23 9 36 72 103 119 126 25 12 63 21 90 21 35 0 47 4 47 15 0 20 -51
19 -116 -3z"/>
<path d="M1758 1412 c-3 -37 -14 -88 -26 -114 -26 -61 -99 -132 -158 -154 -28
-11 -41 -21 -35 -27 16 -16 77 12 131 60 71 64 102 128 108 226 3 47 1 77 -5
77 -6 0 -12 -30 -15 -68z"/>
<path d="M1187 1464 c-4 -4 -7 -15 -7 -25 0 -11 -9 -19 -22 -21 -30 -4 -52
-67 -43 -123 3 -22 9 -80 13 -130 l7 -90 170 0 170 0 3 82 c1 45 9 94 16 108
15 28 14 49 -3 113 -10 34 -16 42 -36 42 -17 0 -25 6 -27 23 -3 21 -7 22 -119
25 -63 1 -118 -1 -122 -4z m223 -69 l0 -45 -105 0 -105 0 0 45 0 45 105 0 105
0 0 -45z m-230 -30 l0 -35 125 0 c131 0 129 -1 125 48 -1 14 4 22 14 22 18 0
39 -67 34 -108 -4 -36 -40 -42 -62 -10 l-16 22 -16 -22 c-19 -28 -54 -29 -61
-2 -3 11 -11 20 -18 20 -7 0 -15 -9 -18 -20 -3 -12 -14 -20 -26 -20 -11 0 -25
9 -31 20 -6 11 -15 20 -19 20 -5 0 -11 -9 -14 -20 -6 -24 -39 -27 -57 -5 -10
13 -11 27 -1 70 15 64 41 77 41 20z m100 -122 c19 10 30 10 48 1 16 -8 31 -9
50 -2 18 7 36 6 55 -1 26 -10 27 -14 27 -76 l0 -65 -85 0 c-47 0 -88 0 -92 0
-5 0 -9 25 -11 55 l-3 55 -44 0 -45 0 0 -54 c0 -30 -4 -57 -9 -61 -16 -9 -18
7 -13 78 4 56 7 67 23 67 10 0 21 4 24 10 4 6 14 4 28 -5 18 -12 27 -12 47 -2z
m-30 -97 c0 -31 -5 -46 -16 -50 -26 -10 -34 2 -34 50 0 40 2 44 25 44 23 0 25
-4 25 -44z"/>
<path d="M1297 1203 c-3 -5 -4 -24 -3 -43 l2 -35 67 -3 67 -3 0 46 0 45 -64 0
c-36 0 -67 -3 -69 -7z m113 -38 c0 -23 -4 -25 -45 -25 -41 0 -45 2 -45 25 0
23 4 25 45 25 41 0 45 -2 45 -25z"/>
<path d="M1700 1424 c0 -20 -5 -55 -12 -77 -16 -53 -92 -134 -143 -151 -21 -8
-41 -19 -43 -25 -5 -15 12 -14 55 4 56 24 100 61 128 110 26 43 47 137 38 162
-10 26 -23 12 -23 -23z"/>
<path d="M702 837 c-12 -7 -29 -22 -37 -34 l-14 -20 -138 28 c-162 34 -184 35
-239 10 -54 -24 -70 -64 -46 -112 9 -18 23 -35 30 -37 17 -5 15 23 -3 38 -23
19 -18 56 11 79 37 29 112 27 258 -4 64 -14 117 -25 119 -25 2 0 1 -19 -2 -42
l-6 -43 -62 -3 c-45 -2 -63 -7 -63 -16 0 -11 15 -13 65 -8 l65 5 -6 -34 c-15
-82 -63 -113 -165 -107 -59 3 -72 8 -99 33 -16 16 -30 35 -30 42 0 7 -7 13
-15 13 -20 0 -19 -9 5 -47 29 -48 73 -67 155 -68 52 0 78 5 103 20 34 20 72
86 72 123 0 20 5 22 51 22 36 0 49 4 46 13 -2 7 -22 12 -51 12 l-47 0 3 40 3
40 56 0 c67 1 109 24 109 59 0 13 -7 27 -16 30 -26 10 -88 6 -112 -7z m102
-15 c12 -20 -16 -36 -70 -40 -55 -5 -58 -4 -44 13 24 29 101 48 114 27z"/>
<path d="M2007 834 c-61 -19 -122 -79 -137 -135 -48 -177 175 -287 339 -169
42 31 59 55 47 67 -3 4 -24 -10 -45 -31 -68 -67 -168 -80 -252 -34 -86 47 -94
163 -17 235 77 72 241 70 268 -3 20 -52 -32 -104 -105 -104 -48 0 -70 32 -49
71 13 26 13 29 -1 29 -8 0 -20 -11 -26 -24 -43 -94 108 -141 184 -56 49 54 30
116 -47 151 -49 22 -94 23 -159 3z"/>
<path d="M2473 818 c-13 -24 -18 -62 -20 -143 -2 -92 -6 -114 -23 -137 -26
-36 -39 -35 -53 2 -14 38 -20 38 -34 -1 -13 -33 -36 -35 -41 -3 -4 30 15 49
48 49 41 0 43 19 2 23 -55 5 -90 -43 -71 -96 9 -25 47 -30 68 -9 11 10 14 10
18 0 8 -22 52 -14 75 12 l21 25 11 -22 c20 -39 42 -45 75 -20 30 22 30 22 41
2 21 -40 99 -19 135 36 26 41 6 49 -26 10 -34 -40 -64 -53 -84 -36 -18 15 -20
61 -3 78 18 18 28 15 28 -8 0 -22 16 -27 23 -7 8 21 -13 47 -38 47 -18 0 -30
-10 -45 -37 -42 -79 -72 -95 -91 -46 -8 22 -5 38 17 87 31 71 44 187 24 211
-19 23 -38 18 -57 -17z m47 -37 c0 -40 -36 -171 -47 -171 -9 0 4 152 16 183
15 39 31 33 31 -12z"/>
<path d="M764 695 c-7 -18 3 -35 21 -35 18 0 26 15 19 34 -8 20 -33 21 -40 1z"/>
<path d="M767 613 c-13 -12 -7 -89 9 -111 28 -41 70 -20 108 56 23 45 30 40
22 -18 -6 -44 -5 -50 12 -50 12 0 26 16 40 45 12 25 26 45 31 45 6 0 11 -19
13 -42 3 -36 7 -44 26 -46 13 -2 32 4 42 13 16 14 18 14 23 0 7 -17 48 -20 64
-4 8 8 13 8 17 0 14 -21 54 -11 80 20 14 17 26 37 26 44 0 8 5 17 12 21 8 5
10 -7 5 -44 -5 -45 -4 -52 11 -52 10 0 27 19 41 45 28 52 41 57 41 16 0 -16 3
-36 6 -45 8 -21 43 -20 66 1 18 16 19 15 34 -5 20 -29 65 -29 100 1 l27 23 23
-23 c13 -13 30 -23 40 -23 21 0 84 63 84 84 0 21 -19 20 -27 -1 -11 -31 -35
-53 -60 -53 -28 0 -29 4 -3 30 25 25 26 56 3 68 -27 14 -41 4 -63 -39 -24 -47
-61 -73 -89 -64 -26 8 -36 46 -21 75 13 24 37 22 32 -4 -2 -9 4 -16 13 -16 12
0 15 8 13 28 -2 21 -9 28 -31 30 -22 3 -30 -3 -45 -29 -45 -83 -85 -101 -80
-35 4 65 -28 75 -66 20 l-25 -37 -3 39 c-4 50 -30 58 -48 14 -18 -42 -49 -80
-66 -80 -8 0 -17 13 -20 30 -4 17 -9 30 -13 30 -4 0 -12 -13 -18 -30 -15 -39
-43 -40 -43 -1 0 36 22 55 55 47 18 -5 25 -2 25 9 0 10 -10 15 -34 15 -35 0
-38 -3 -95 -79 -24 -32 -41 -19 -41 30 0 28 -5 42 -17 46 -16 6 -30 -6 -63
-56 -15 -22 -15 -21 -15 21 0 64 -27 64 -59 -1 -25 -48 -56 -77 -70 -64 -3 3
-6 30 -6 60 0 49 -7 63 -23 46z m913 -31 c0 -15 -28 -47 -35 -40 -11 11 5 48
21 48 8 0 14 -4 14 -8z"/>
</g>
</svg>
